<svg xmlns="http://www.w3.org/2000/svg" version="1.1" xmlns:xlink="http://www.w3.org/1999/xlink" xmlns:svgjs="http://svgjs.dev/svgjs" width="2000" height="914" viewBox="0 0 2000 914"><g transform="matrix(1,0,0,1,-1.2121212121212466,-1.1193964474574045)"><svg viewBox="0 0 396 181" data-background-color="#246bfd" preserveAspectRatio="xMidYMid meet" height="914" width="2000" xmlns="http://www.w3.org/2000/svg" xmlns:xlink="http://www.w3.org/1999/xlink"><g id="tight-bounds" transform="matrix(1,0,0,1,0.2400000000000091,0.22167478882909109)"><svg viewBox="0 0 395.52 180.55665042234182" height="180.55665042234182" width="395.52"><g><svg viewBox="0 0 397.4975999999999 181.4594336744535" height="180.55665042234182" width="395.52"><g><rect width="397.4975999999999" height="5.557862788294041" x="0" y="99.72212769789182" fill="#ffffff" opacity="1" stroke-width="0" stroke="transparent" fill-opacity="1" class="rect-o-0" data-fill-palette-color="secondary" rx="1%" id="o-0" data-palette-color="#ffffff"></rect></g><g transform="matrix(1,0,0,1,0.9887999999999693,119.82936951313361)"><svg viewBox="0 0 395.52 61.63006416131987" height="61.63006416131987" width="395.52"><g id="textblocktransform"><svg viewBox="0 0 395.52 61.63006416131987" height="61.63006416131987" width="395.52" id="textblock"><g><svg viewBox="0 0 395.52 61.63006416131987" height="61.63006416131987" width="395.52"><g transform="matrix(1,0,0,1,0,0)"><svg width="395.52" viewBox="3.6500000953674316 -33.5 218.19000244140625 34" height="61.63006416131987" data-palette-color="#ffffff"><path d="M3.65-33L19.4-33Q25.3-33 28.58-30.23 31.85-27.45 31.85-22.85L31.85-22.85Q31.85-17.8 28.6-15.15 25.35-12.5 19.45-12.5L19.45-12.5 18.65-12.05 12.1-12.05 12.1 0 3.65 0 3.65-33ZM12.1-18.15L18.2-18.15Q20.7-18.15 21.95-19.15 23.2-20.15 23.2-22.35L23.2-22.35Q23.2-24.5 21.95-25.5 20.7-26.5 18.2-26.5L18.2-26.5 12.1-26.5 12.1-18.15ZM15.85-14.45L23.25-16.35 33.8 0 24.3 0 15.85-14.45ZM64.45 0L38.1 0 38.1-33 63.8-33 63.8-26.35 46.7-26.35 46.7-19.65 60.3-19.65 60.3-13.4 46.7-13.4 46.7-6.65 64.45-6.65 64.45 0ZM91.8-33L99.4-33 99.4 0 89.84 0 79.59-17.85 77.09-22.75 77.05-22.75 77.25-16.65 77.25 0 69.65 0 69.65-33 79.2-33 89.45-15.15 91.95-10.25 92-10.25 91.8-16.35 91.8-33ZM104.29-33L134.44-33 134.44-26.35 123.69-26.35 123.69 0 115.09 0 115.09-26.35 104.29-26.35 104.29-33ZM139.34-33L147.94-33 147.94 0 139.34 0 139.34-33ZM177.39-33L184.99-33 184.99 0 175.44 0 165.19-17.85 162.69-22.75 162.64-22.75 162.84-16.65 162.84 0 155.24 0 155.24-33 164.79-33 175.04-15.15 177.54-10.25 177.59-10.25 177.39-16.35 177.39-33ZM205.94 0.5L205.94 0.5Q201.54 0.5 198.11-1.45 194.69-3.4 192.79-7.2 190.89-11 190.89-16.45L190.89-16.45Q190.89-21.8 192.89-25.6 194.89-29.4 198.61-31.45 202.34-33.5 207.39-33.5L207.39-33.5Q212.99-33.5 216.44-31.48 219.89-29.45 221.79-25.05L221.79-25.05 213.84-21.9Q213.19-24.45 211.54-25.6 209.89-26.75 207.44-26.75L207.44-26.75Q204.99-26.75 203.24-25.58 201.49-24.4 200.59-22.13 199.69-19.85 199.69-16.5L199.69-16.5Q199.69-13 200.61-10.65 201.54-8.3 203.36-7.18 205.19-6.05 207.89-6.05L207.89-6.05Q209.34-6.05 210.54-6.4 211.74-6.75 212.64-7.43 213.54-8.1 214.04-9.13 214.54-10.15 214.54-11.55L214.54-11.55 214.54-12.05 206.99-12.05 206.99-17.8 221.84-17.8 221.84 0 215.99 0 215.34-7.75 216.74-6.55Q215.69-3.15 212.96-1.33 210.24 0.5 205.94 0.5Z" opacity="1" transform="matrix(1,0,0,1,0,0)" fill="#ffffff" class="undefined-text-0" data-fill-palette-color="primary" id="text-0"></path></svg></g></svg></g></svg></g></svg></g><g transform="matrix(1,0,0,1,136.85866788999488,0)"><svg viewBox="0 0 123.78026422001014 85.17274867094407" height="85.17274867094407" width="123.78026422001014"><g><svg xmlns="http://www.w3.org/2000/svg" xmlns:xlink="http://www.w3.org/1999/xlink" version="1.1" x="8" y="0" viewBox="11.873929023742676 24.452999114990234 120.33366394042969 95.09300231933594" enable-background="new 0 0 144.083 144" xml:space="preserve" height="85.17274867094407" width="107.78026422001014" class="icon-icon-0" data-fill-palette-color="accent" id="icon-0"><path d="M132.122 83.668l-10-40.91c-0.328-1.343-1.531-2.288-2.914-2.288H50.292V27.453c0-1.657-1.343-3-3-3h-14c-1.657 0-3 1.343-3 3v13.018h-5.416c-1.382 0-2.586 0.945-2.914 2.288L11.96 83.668c-0.219 0.895-0.015 1.841 0.554 2.565 0.569 0.724 1.439 1.147 2.36 1.147h1.733v29.166c0 1.657 1.343 3 3 3h33.275 9.747 18.824H91.2h33.275c1.658 0 3-1.343 3-3V87.381h1.732c0.922 0 1.791-0.423 2.359-1.147C132.137 85.509 132.34 84.563 132.122 83.668zM125.387 81.381H94.2V67.135c0-0.707-0.25-1.391-0.705-1.932l-7.306-8.678h33.121L125.387 81.381zM49.883 95.748v17.799h-9.745V95.748H49.883zM55.883 113.547v-45.3l16.335-19.002L88.2 68.229v45.317h-3.746V92.861c0-6.844-5.568-12.412-12.412-12.412-6.844 0-12.412 5.568-12.412 12.412v20.686H55.883zM65.63 92.861c0-3.535 2.876-6.412 6.412-6.412 3.537 0 6.412 2.877 6.412 6.412v20.686H65.63V92.861zM94.2 95.748h9.744v17.799H94.2V95.748zM117.843 50.524H81.138l-3.412-4.054h39.126L117.843 50.524zM36.292 30.453h8v10.018h-8V30.453zM66.691 46.471l-3.485 4.054H26.24l0.991-4.054H66.691zM24.773 56.524h33.276l-7.44 8.655c-0.468 0.544-0.725 1.238-0.725 1.956v14.246H18.696L24.773 56.524zM49.883 87.381v2.367H22.608v-2.367H49.883zM22.608 95.748h11.53v17.799h-11.53V95.748zM109.944 113.547V95.748h11.531v17.799H109.944zM121.475 89.748H94.2v-2.367h27.275V89.748z" fill="#ffffff" data-fill-palette-color="accent"></path><rect x="67.708" y="71.454" width="8.666" height="6" fill="#ffffff" data-fill-palette-color="accent"></rect></svg></g></svg></g><g><rect width="60.32554788999492" height="5.557862788294041" y="78.61488588265003" x="260.63893211000504" fill="#ffffff" data-fill-palette-color="secondary"></rect><rect width="60.32554788999492" height="5.557862788294041" y="78.61488588265003" x="76.53311999999997" fill="#ffffff" data-fill-palette-color="secondary"></rect></g></svg></g><defs></defs></svg><rect width="395.52" height="180.55665042234182" fill="none" stroke="none" visibility="hidden"></rect></g></svg></g></svg>